<svg width="1200" height="520" viewBox="0 0 1200 520" fill="none" xmlns="http://www.w3.org/2000/svg">
  <rect width="1200" height="520" rx="34" fill="#0A0B10"/>
  <rect x="46" y="46" width="1108" height="428" rx="28" fill="#101116" stroke="#262A36"/>
  <text x="88" y="112" fill="#F5F6FA" font-family="Inter,Segoe UI,sans-serif" font-size="34" font-weight="760">支持的转换流程</text>
  <text x="88" y="147" fill="#AEB5C6" font-family="Inter,Segoe UI,sans-serif" font-size="18">默认简单易用，需要时再展开进阶控制</text>

  <g>
    <rect x="88" y="204" width="220" height="146" rx="20" fill="#1A1D28" stroke="#363B4B"/>
    <circle cx="122" cy="239" r="14" fill="#8B7CFF"/>
    <text x="150" y="247" fill="#F5F6FA" font-family="Inter,Segoe UI,sans-serif" font-size="20" font-weight="740">图片 + 视频</text>
    <text x="120" y="292" fill="#B8BECD" font-family="Inter,Segoe UI,sans-serif" font-size="16">上传封面图片</text>
    <text x="120" y="320" fill="#B8BECD" font-family="Inter,Segoe UI,sans-serif" font-size="16">和动态视频</text>
  </g>

  <g>
    <rect x="356" y="204" width="220" height="146" rx="20" fill="#1A1D28" stroke="#363B4B"/>
    <circle cx="390" cy="239" r="14" fill="#6CC7E8"/>
    <text x="418" y="247" fill="#F5F6FA" font-family="Inter,Segoe UI,sans-serif" font-size="20" font-weight="740">视频截帧</text>
    <text x="388" y="292" fill="#B8BECD" font-family="Inter,Segoe UI,sans-serif" font-size="16">从指定时间点</text>
    <text x="388" y="320" fill="#B8BECD" font-family="Inter,Segoe UI,sans-serif" font-size="16">截取封面</text>
  </g>

  <g>
    <rect x="624" y="204" width="220" height="146" rx="20" fill="#1A1D28" stroke="#363B4B"/>
    <circle cx="658" cy="239" r="14" fill="#55C48F"/>
    <text x="686" y="247" fill="#F5F6FA" font-family="Inter,Segoe UI,sans-serif" font-size="20" font-weight="740">URL 素材</text>
    <text x="656" y="292" fill="#B8BECD" font-family="Inter,Segoe UI,sans-serif" font-size="16">读取 mp4、mov</text>
    <text x="656" y="320" fill="#B8BECD" font-family="Inter,Segoe UI,sans-serif" font-size="16">或后端解析 m3u8</text>
  </g>

  <g>
    <rect x="892" y="204" width="220" height="146" rx="20" fill="#1A1D28" stroke="#363B4B"/>
    <circle cx="926" cy="239" r="14" fill="#D9A84F"/>
    <text x="954" y="247" fill="#F5F6FA" font-family="Inter,Segoe UI,sans-serif" font-size="20" font-weight="740">实况互转</text>
    <text x="924" y="292" fill="#B8BECD" font-family="Inter,Segoe UI,sans-serif" font-size="16">转换 iOS 双文件</text>
    <text x="924" y="320" fill="#B8BECD" font-family="Inter,Segoe UI,sans-serif" font-size="16">和安卓动态 JPG</text>
  </g>

  <path d="M228 398H972" stroke="#363B4B" stroke-width="4" stroke-linecap="round"/>
  <path d="M972 398L952 382M972 398L952 414" stroke="#8B7CFF" stroke-width="4" stroke-linecap="round" stroke-linejoin="round"/>
  <text x="418" y="434" fill="#AEB5C6" font-family="Inter,Segoe UI,sans-serif" font-size="17">选择素材，确认目标平台，然后开始转换。</text>
</svg>
